<?xml version="1.0" encoding="utf-8"?>
<!-- Generator: Adobe Illustrator 27.5.0, SVG Export Plug-In . SVG Version: 6.00 Build 0)  -->
<svg version="1.1" xmlns="http://www.w3.org/2000/svg" xmlns:xlink="http://www.w3.org/1999/xlink" x="0px" y="0px"
	 viewBox="0 0 841.89 566.929" style="enable-background:new 0 0 841.89 566.929;" xml:space="preserve">
<g id="BG">
	<rect y="0" style="fill:#FFFFFF;" width="841.89" height="566.929"/>
</g>
<g id="graphics">
	<g>
		<g>
			<path style="fill:#798389;" d="M319.224,391.92v7.749h0.055c0.323-0.846,0.899-1.525,1.728-2.038
				c0.828-0.513,1.737-0.77,2.728-0.77c0.972,0,1.786,0.126,2.443,0.378c0.656,0.252,1.183,0.607,1.579,1.066
				c0.396,0.459,0.675,1.022,0.837,1.688c0.162,0.666,0.243,1.413,0.243,2.241v8.964h-1.701v-8.694c0-0.594-0.054-1.147-0.162-1.66
				c-0.107-0.513-0.297-0.959-0.566-1.337c-0.271-0.378-0.635-0.675-1.094-0.891c-0.459-0.216-1.03-0.324-1.715-0.324
				c-0.684,0-1.292,0.122-1.822,0.365c-0.531,0.242-0.982,0.576-1.35,0.998c-0.369,0.424-0.657,0.928-0.864,1.513
				c-0.207,0.585-0.32,1.22-0.338,1.903v8.127h-1.701V391.92H319.224z"/>
			<path style="fill:#798389;" d="M333.776,391.92v2.727h-1.701v-2.727H333.776z M333.776,397.267v13.932h-1.701v-13.932H333.776z"
				/>
			<path style="fill:#798389;" d="M348.478,412.846c-0.226,0.827-0.581,1.529-1.067,2.105c-0.485,0.576-1.12,1.017-1.903,1.323
				c-0.783,0.306-1.741,0.459-2.875,0.459c-0.702,0-1.387-0.081-2.052-0.243c-0.667-0.162-1.266-0.414-1.796-0.756
				c-0.531-0.342-0.972-0.779-1.323-1.31c-0.351-0.531-0.554-1.166-0.607-1.903h1.701c0.09,0.521,0.266,0.958,0.526,1.31
				c0.261,0.351,0.576,0.634,0.945,0.851c0.368,0.216,0.778,0.373,1.229,0.472c0.449,0.1,0.908,0.148,1.377,0.148
				c1.583,0,2.727-0.449,3.429-1.35c0.702-0.9,1.053-2.196,1.053-3.888v-1.891h-0.054c-0.396,0.864-0.976,1.558-1.741,2.079
				c-0.766,0.522-1.661,0.783-2.687,0.783c-1.116,0-2.07-0.185-2.862-0.554c-0.792-0.368-1.444-0.877-1.957-1.525
				c-0.514-0.647-0.887-1.408-1.121-2.281c-0.234-0.873-0.351-1.805-0.351-2.795c0-0.953,0.139-1.858,0.418-2.713
				s0.685-1.603,1.215-2.241c0.531-0.639,1.189-1.143,1.972-1.512c0.783-0.369,1.678-0.554,2.686-0.554
				c0.522,0,1.013,0.072,1.472,0.216c0.459,0.145,0.877,0.347,1.255,0.607c0.378,0.262,0.716,0.563,1.013,0.904
				c0.297,0.343,0.526,0.702,0.688,1.08h0.054v-2.402h1.701v12.798C348.815,411.09,348.703,412.018,348.478,412.846z
				 M344.576,409.133c0.559-0.315,1.026-0.729,1.404-1.242c0.378-0.513,0.661-1.103,0.851-1.769c0.189-0.666,0.283-1.35,0.283-2.052
				c0-0.684-0.081-1.368-0.242-2.052c-0.162-0.685-0.424-1.305-0.783-1.863c-0.36-0.558-0.824-1.008-1.391-1.35
				c-0.567-0.342-1.256-0.514-2.065-0.514c-0.81,0-1.503,0.167-2.079,0.5c-0.576,0.333-1.053,0.77-1.431,1.31
				c-0.379,0.54-0.653,1.156-0.824,1.85c-0.171,0.692-0.256,1.399-0.256,2.119c0,0.702,0.09,1.386,0.27,2.052
				c0.18,0.666,0.459,1.256,0.837,1.769c0.378,0.513,0.855,0.928,1.432,1.242c0.575,0.315,1.259,0.473,2.052,0.473
				C343.37,409.605,344.019,409.448,344.576,409.133z"/>
			<path style="fill:#798389;" d="M353.729,391.92v7.749h0.054c0.324-0.846,0.9-1.525,1.728-2.038
				c0.827-0.513,1.736-0.77,2.727-0.77c0.972,0,1.786,0.126,2.443,0.378c0.657,0.252,1.184,0.607,1.58,1.066
				c0.396,0.459,0.675,1.022,0.837,1.688c0.162,0.666,0.242,1.413,0.242,2.241v8.964h-1.7v-8.694c0-0.594-0.055-1.147-0.162-1.66
				c-0.108-0.513-0.297-0.959-0.567-1.337c-0.27-0.378-0.635-0.675-1.094-0.891c-0.459-0.216-1.03-0.324-1.714-0.324
				c-0.685,0-1.292,0.122-1.822,0.365c-0.531,0.242-0.981,0.576-1.351,0.998c-0.369,0.424-0.657,0.928-0.864,1.513
				c-0.207,0.585-0.319,1.22-0.337,1.903v8.127h-1.701V391.92H353.729z"/>
			<path style="fill:#798389;" d="M382.079,399.979c-0.198-0.387-0.464-0.706-0.797-0.958c-0.333-0.252-0.715-0.437-1.147-0.554
				c-0.432-0.117-0.891-0.176-1.377-0.176c-0.378,0-0.761,0.041-1.147,0.122c-0.387,0.081-0.742,0.216-1.066,0.404
				c-0.324,0.19-0.585,0.438-0.783,0.743c-0.198,0.306-0.297,0.684-0.297,1.134c0,0.378,0.095,0.697,0.284,0.958
				c0.189,0.262,0.427,0.482,0.715,0.662c0.288,0.18,0.603,0.328,0.945,0.445c0.342,0.117,0.657,0.212,0.945,0.283l2.268,0.514
				c0.486,0.071,0.968,0.202,1.444,0.392c0.477,0.188,0.9,0.436,1.27,0.742c0.368,0.306,0.67,0.685,0.904,1.134
				c0.233,0.45,0.35,0.982,0.35,1.593c0,0.756-0.171,1.4-0.513,1.931c-0.342,0.531-0.778,0.963-1.31,1.296
				c-0.531,0.333-1.13,0.571-1.795,0.716c-0.667,0.143-1.323,0.216-1.972,0.216c-1.638,0-2.966-0.387-3.982-1.161
				c-1.017-0.773-1.598-2.016-1.741-3.726h1.701c0.071,1.152,0.49,2.02,1.255,2.605c0.766,0.585,1.715,0.877,2.849,0.877
				c0.414,0,0.842-0.044,1.282-0.135c0.441-0.09,0.85-0.243,1.229-0.459c0.378-0.216,0.688-0.49,0.932-0.823
				c0.243-0.333,0.365-0.742,0.365-1.229c0-0.414-0.086-0.761-0.257-1.04c-0.172-0.278-0.401-0.513-0.688-0.701
				c-0.288-0.189-0.617-0.347-0.985-0.473c-0.369-0.126-0.743-0.234-1.121-0.324l-2.186-0.486c-0.559-0.144-1.071-0.311-1.539-0.499
				c-0.469-0.189-0.878-0.423-1.229-0.702c-0.352-0.279-0.626-0.621-0.823-1.026c-0.198-0.404-0.297-0.904-0.297-1.498
				c0-0.702,0.157-1.305,0.472-1.81c0.315-0.503,0.725-0.908,1.229-1.215c0.504-0.306,1.066-0.53,1.688-0.675
				c0.621-0.144,1.237-0.216,1.85-0.216c0.702,0,1.354,0.09,1.958,0.27c0.602,0.181,1.134,0.459,1.593,0.837
				c0.459,0.379,0.823,0.847,1.094,1.404c0.27,0.559,0.423,1.215,0.459,1.971h-1.701
				C382.385,400.821,382.277,400.367,382.079,399.979z"/>
			<path style="fill:#798389;" d="M388.613,397.267v2.646h0.054c0.396-0.972,1.039-1.724,1.931-2.254
				c0.891-0.531,1.903-0.797,3.037-0.797c1.063,0,1.984,0.198,2.767,0.594c0.783,0.396,1.436,0.932,1.958,1.607
				c0.521,0.675,0.908,1.458,1.161,2.35c0.251,0.891,0.378,1.831,0.378,2.821c0,0.99-0.127,1.931-0.378,2.821
				c-0.253,0.891-0.64,1.674-1.161,2.349c-0.522,0.676-1.175,1.206-1.958,1.594c-0.783,0.387-1.705,0.58-2.767,0.58
				c-0.504,0-1.008-0.064-1.512-0.189c-0.504-0.127-0.972-0.315-1.404-0.567c-0.432-0.252-0.814-0.567-1.147-0.945
				c-0.333-0.378-0.59-0.818-0.77-1.323h-0.054v7.776h-1.701v-19.062H388.613z M397.941,402.086
				c-0.171-0.711-0.441-1.346-0.81-1.903c-0.369-0.558-0.842-1.013-1.418-1.364c-0.576-0.351-1.269-0.526-2.079-0.526
				c-0.936,0-1.719,0.162-2.349,0.486c-0.631,0.324-1.134,0.756-1.512,1.296c-0.378,0.54-0.645,1.17-0.797,1.89
				c-0.153,0.721-0.229,1.477-0.229,2.269c0,0.72,0.085,1.435,0.257,2.146c0.171,0.711,0.449,1.346,0.837,1.903
				c0.387,0.559,0.891,1.013,1.512,1.363c0.621,0.352,1.381,0.526,2.281,0.526c0.81,0,1.503-0.175,2.079-0.526
				c0.576-0.35,1.049-0.805,1.418-1.363c0.368-0.558,0.639-1.192,0.81-1.903c0.171-0.711,0.257-1.427,0.257-2.146
				C398.198,403.513,398.112,402.797,397.941,402.086z"/>
			<path style="fill:#798389;" d="M403.8,406.595c0.171,0.657,0.445,1.247,0.824,1.769c0.378,0.522,0.854,0.954,1.431,1.296
				s1.268,0.513,2.079,0.513c1.242,0,2.214-0.323,2.916-0.972c0.702-0.648,1.188-1.512,1.458-2.592h1.701
				c-0.36,1.584-1.023,2.808-1.985,3.672c-0.963,0.864-2.326,1.296-4.09,1.296c-1.099,0-2.048-0.193-2.849-0.58
				c-0.801-0.388-1.454-0.918-1.958-1.594c-0.504-0.675-0.877-1.458-1.12-2.349c-0.243-0.891-0.364-1.831-0.364-2.821
				c0-0.918,0.121-1.818,0.364-2.7c0.243-0.882,0.616-1.669,1.12-2.362c0.504-0.693,1.157-1.251,1.958-1.674
				c0.801-0.423,1.75-0.635,2.849-0.635c1.115,0,2.069,0.226,2.861,0.675c0.792,0.45,1.436,1.04,1.931,1.768
				c0.495,0.73,0.851,1.566,1.066,2.511c0.217,0.945,0.307,1.904,0.271,2.876h-10.719
				C403.544,405.304,403.629,405.938,403.8,406.595z M412.224,401.397c-0.207-0.594-0.499-1.121-0.877-1.58
				c-0.378-0.459-0.837-0.827-1.377-1.106c-0.54-0.279-1.152-0.419-1.836-0.419c-0.702,0-1.323,0.14-1.863,0.419
				c-0.54,0.279-0.999,0.647-1.377,1.106c-0.378,0.459-0.68,0.99-0.904,1.594c-0.226,0.603-0.374,1.22-0.445,1.849h9.018
				C412.543,402.612,412.431,401.991,412.224,401.397z"/>
			<path style="fill:#798389;" d="M417.813,406.595c0.171,0.657,0.445,1.247,0.824,1.769c0.378,0.522,0.854,0.954,1.431,1.296
				s1.268,0.513,2.079,0.513c1.241,0,2.214-0.323,2.916-0.972c0.701-0.648,1.188-1.512,1.457-2.592h1.701
				c-0.359,1.584-1.022,2.808-1.984,3.672c-0.963,0.864-2.326,1.296-4.09,1.296c-1.099,0-2.048-0.193-2.849-0.58
				c-0.801-0.388-1.454-0.918-1.958-1.594c-0.504-0.675-0.877-1.458-1.12-2.349c-0.243-0.891-0.364-1.831-0.364-2.821
				c0-0.918,0.121-1.818,0.364-2.7c0.243-0.882,0.616-1.669,1.12-2.362c0.504-0.693,1.157-1.251,1.958-1.674
				c0.801-0.423,1.75-0.635,2.849-0.635c1.115,0,2.069,0.226,2.861,0.675c0.792,0.45,1.436,1.04,1.932,1.768
				c0.494,0.73,0.85,1.566,1.066,2.511c0.215,0.945,0.305,1.904,0.27,2.876h-10.719
				C417.557,405.304,417.642,405.938,417.813,406.595z M426.236,401.397c-0.207-0.594-0.499-1.121-0.877-1.58
				c-0.378-0.459-0.837-0.827-1.377-1.106c-0.54-0.279-1.152-0.419-1.836-0.419c-0.702,0-1.323,0.14-1.863,0.419
				c-0.54,0.279-0.999,0.647-1.377,1.106c-0.378,0.459-0.68,0.99-0.904,1.594c-0.226,0.603-0.374,1.22-0.445,1.849h9.018
				C426.557,402.612,426.443,401.991,426.236,401.397z"/>
			<path style="fill:#798389;" d="M441.262,411.198v-2.647h-0.053c-0.18,0.45-0.445,0.864-0.797,1.242
				c-0.352,0.378-0.752,0.698-1.201,0.959c-0.451,0.261-0.932,0.463-1.445,0.607c-0.512,0.143-1.022,0.216-1.525,0.216
				c-1.063,0-1.984-0.193-2.768-0.58c-0.783-0.388-1.436-0.918-1.957-1.594c-0.522-0.675-0.908-1.458-1.16-2.349
				c-0.254-0.891-0.379-1.831-0.379-2.821c0-0.99,0.125-1.931,0.379-2.821c0.252-0.892,0.639-1.675,1.16-2.35
				c0.521-0.675,1.174-1.21,1.957-1.607c0.783-0.396,1.705-0.594,2.768-0.594c0.521,0,1.031,0.063,1.525,0.188
				c0.496,0.127,0.959,0.32,1.391,0.581c0.432,0.261,0.814,0.58,1.148,0.958c0.332,0.378,0.588,0.819,0.77,1.323h0.053v-7.992h1.701
				v19.278H441.262z M431.934,406.379c0.172,0.711,0.441,1.346,0.81,1.903c0.369,0.559,0.842,1.013,1.418,1.363
				c0.576,0.352,1.27,0.526,2.078,0.526c0.9,0,1.66-0.175,2.281-0.526c0.621-0.35,1.125-0.805,1.514-1.363
				c0.387-0.558,0.664-1.192,0.836-1.903c0.172-0.711,0.256-1.427,0.256-2.146c0-0.72-0.084-1.436-0.256-2.147
				c-0.172-0.711-0.449-1.346-0.836-1.903c-0.389-0.558-0.893-1.013-1.514-1.364c-0.621-0.351-1.381-0.526-2.281-0.526
				c-0.809,0-1.502,0.176-2.078,0.526c-0.576,0.352-1.049,0.807-1.418,1.364c-0.369,0.558-0.639,1.192-0.81,1.903
				c-0.17,0.711-0.256,1.427-0.256,2.147C431.678,404.952,431.764,405.668,431.934,406.379z"/>
			<path style="fill:#798389;" d="M455.141,397.267v3.267h0.055c0.432-1.134,1.102-2.007,2.012-2.619
				c0.908-0.611,1.992-0.891,3.252-0.837v1.701c-0.774-0.036-1.475,0.067-2.106,0.31c-0.631,0.243-1.174,0.59-1.633,1.039
				c-0.459,0.45-0.814,0.985-1.066,1.606c-0.254,0.621-0.379,1.301-0.379,2.039v7.425h-1.701v-13.932H455.141z"/>
			<path style="fill:#798389;" d="M463.807,391.92v2.727h-1.699v-2.727H463.807z M463.807,397.267v13.932h-1.699v-13.932H463.807z"
				/>
			<path style="fill:#798389;" d="M468.775,391.92v7.992h0.053c0.18-0.504,0.438-0.945,0.77-1.323
				c0.334-0.378,0.717-0.697,1.148-0.958c0.432-0.261,0.898-0.454,1.404-0.581c0.504-0.125,1.008-0.188,1.512-0.188
				c1.061,0,1.984,0.198,2.768,0.594c0.783,0.396,1.435,0.932,1.957,1.607c0.522,0.675,0.908,1.458,1.16,2.35
				c0.252,0.891,0.379,1.831,0.379,2.821c0,0.99-0.127,1.931-0.379,2.821c-0.252,0.891-0.639,1.674-1.16,2.349
				c-0.522,0.676-1.174,1.206-1.957,1.594c-0.783,0.387-1.707,0.58-2.768,0.58c-1.135,0-2.146-0.261-3.037-0.783
				c-0.893-0.521-1.535-1.268-1.932-2.241h-0.055v2.647h-1.565V391.92H468.775z M477.969,402.086
				c-0.172-0.711-0.441-1.346-0.811-1.903c-0.369-0.558-0.842-1.013-1.418-1.364c-0.576-0.351-1.269-0.526-2.078-0.526
				c-0.9,0-1.66,0.176-2.281,0.526c-0.621,0.352-1.125,0.807-1.514,1.364c-0.387,0.558-0.666,1.192-0.836,1.903
				c-0.172,0.711-0.256,1.427-0.256,2.147c0,0.72,0.084,1.435,0.256,2.146c0.17,0.711,0.449,1.346,0.836,1.903
				c0.389,0.559,0.893,1.013,1.514,1.363c0.621,0.352,1.381,0.526,2.281,0.526c0.809,0,1.502-0.175,2.078-0.526
				c0.576-0.35,1.049-0.805,1.418-1.363c0.369-0.558,0.639-1.192,0.811-1.903c0.17-0.711,0.256-1.427,0.256-2.146
				C478.225,403.513,478.139,402.797,477.969,402.086z"/>
			<path style="fill:#798389;" d="M484.273,391.92v7.992h0.053c0.18-0.504,0.438-0.945,0.769-1.323
				c0.334-0.378,0.717-0.697,1.148-0.958c0.432-0.261,0.898-0.454,1.404-0.581c0.504-0.125,1.008-0.188,1.512-0.188
				c1.06,0,1.984,0.198,2.767,0.594c0.783,0.396,1.436,0.932,1.957,1.607c0.521,0.675,0.908,1.458,1.16,2.35
				c0.252,0.891,0.379,1.831,0.379,2.821c0,0.99-0.127,1.931-0.379,2.821c-0.252,0.891-0.639,1.674-1.16,2.349
				c-0.522,0.676-1.174,1.206-1.957,1.594c-0.783,0.387-1.707,0.58-2.767,0.58c-1.135,0-2.146-0.261-3.037-0.783
				c-0.892-0.521-1.535-1.268-1.932-2.241h-0.055v2.647h-1.564V391.92H484.273z M493.467,402.086
				c-0.172-0.711-0.441-1.346-0.811-1.903c-0.369-0.558-0.842-1.013-1.418-1.364c-0.576-0.351-1.27-0.526-2.078-0.526
				c-0.9,0-1.66,0.176-2.281,0.526c-0.621,0.352-1.125,0.807-1.514,1.364c-0.387,0.558-0.666,1.192-0.836,1.903
				c-0.172,0.711-0.256,1.427-0.256,2.147c0,0.72,0.084,1.435,0.256,2.146c0.17,0.711,0.449,1.346,0.836,1.903
				c0.389,0.559,0.893,1.013,1.514,1.363c0.621,0.352,1.381,0.526,2.281,0.526c0.809,0,1.502-0.175,2.078-0.526
				c0.576-0.35,1.049-0.805,1.418-1.363c0.369-0.558,0.639-1.192,0.811-1.903c0.17-0.711,0.256-1.427,0.256-2.146
				C493.723,403.513,493.637,402.797,493.467,402.086z"/>
			<path style="fill:#798389;" d="M506.777,397.455c0.818,0.396,1.508,0.928,2.065,1.593c0.559,0.667,0.982,1.445,1.27,2.336
				c0.289,0.891,0.432,1.841,0.432,2.849c0,1.008-0.143,1.957-0.432,2.849c-0.287,0.891-0.711,1.67-1.27,2.335
				c-0.557,0.666-1.246,1.192-2.065,1.58c-0.82,0.387-1.76,0.58-2.822,0.58s-2.002-0.193-2.82-0.58
				c-0.82-0.388-1.508-0.914-2.066-1.58c-0.559-0.665-0.98-1.444-1.27-2.335c-0.287-0.892-0.432-1.841-0.432-2.849
				c0-1.008,0.145-1.958,0.432-2.849c0.289-0.891,0.711-1.669,1.27-2.336c0.559-0.665,1.246-1.196,2.066-1.593
				c0.818-0.396,1.758-0.594,2.82-0.594S505.957,397.06,506.777,397.455z M501.822,398.806c-0.611,0.342-1.119,0.792-1.525,1.35
				c-0.404,0.559-0.711,1.192-0.918,1.903c-0.207,0.712-0.31,1.436-0.31,2.174c0,0.738,0.103,1.463,0.31,2.173
				c0.207,0.712,0.514,1.347,0.918,1.904c0.406,0.558,0.914,1.008,1.525,1.35c0.611,0.342,1.324,0.513,2.133,0.513
				c0.811,0,1.522-0.171,2.133-0.513c0.613-0.342,1.121-0.792,1.525-1.35c0.406-0.558,0.711-1.192,0.918-1.904
				c0.207-0.71,0.311-1.435,0.311-2.173c0-0.738-0.104-1.462-0.311-2.174c-0.207-0.711-0.512-1.345-0.918-1.903
				c-0.404-0.558-0.912-1.008-1.525-1.35c-0.611-0.342-1.322-0.514-2.133-0.514C503.146,398.292,502.434,398.464,501.822,398.806z"
				/>
			<path style="fill:#798389;" d="M514.756,397.267v2.402h0.053c0.324-0.846,0.9-1.525,1.729-2.038
				c0.828-0.513,1.736-0.77,2.727-0.77c0.973,0,1.787,0.126,2.443,0.378c0.658,0.252,1.184,0.607,1.58,1.066
				c0.396,0.459,0.676,1.022,0.838,1.688c0.162,0.666,0.242,1.413,0.242,2.241v8.964h-1.701v-8.694c0-0.594-0.053-1.147-0.162-1.66
				c-0.107-0.513-0.297-0.959-0.566-1.337c-0.269-0.378-0.635-0.675-1.094-0.891c-0.459-0.216-1.031-0.324-1.715-0.324
				s-1.291,0.122-1.822,0.365c-0.531,0.242-0.98,0.576-1.35,0.998c-0.369,0.424-0.658,0.928-0.863,1.513
				c-0.207,0.585-0.32,1.22-0.338,1.903v8.127h-1.701v-13.932H514.756z"/>
		</g>
	</g>
	<g>
		<g>
			<path style="fill:#A3A9AA;" d="M285.948,383.338v-38.057c0-3.333,0.879-5.833,2.639-7.5c1.667-1.573,4.397-2.361,8.195-2.361
				c0.925,0,1.667,0.048,2.222,0.139c1.018,0,1.806,0.048,2.361,0.14v7.639h-2.5c-1.298,0-2.222,0.186-2.778,0.556
				c-0.465,0.371-0.694,1.111-0.694,2.223v2.5h5.972v2.083c0,1.389-0.464,2.524-1.389,3.402c-0.927,0.882-1.993,1.32-3.195,1.32
				h-1.389v27.917H285.948z"/>
			<path style="fill:#A3A9AA;" d="M341.434,346.393v21.667c0,6.576-1.715,10.882-5.139,12.917c-3.428,2.038-7.178,3.056-11.25,3.056
				c-3.982-0.187-7.618-1.296-10.903-3.334c-3.288-2.035-4.931-6.25-4.931-12.639v-21.667h9.723v23.611
				c0,2.223,0.646,3.844,1.944,4.861c1.295,1.02,2.778,1.528,4.445,1.528c1.666,0,3.17-0.509,4.514-1.528
				c1.341-1.018,2.014-2.639,2.014-4.861v-18.889c0-1.296,0.439-2.407,1.32-3.333c0.878-0.925,2.013-1.39,3.402-1.39H341.434z"/>
			<path style="fill:#A3A9AA;" d="M381.503,383.338h-4.861c-1.389,0-2.524-0.438-3.402-1.319c-0.881-0.879-1.32-2.015-1.32-3.403
				v-18.89c0-2.222-0.672-3.841-2.014-4.861c-1.343-1.018-2.847-1.527-4.514-1.527c-1.667,0-3.148,0.51-4.444,1.527
				c-1.297,1.021-1.945,2.64-1.945,4.861v23.612h-9.722v-21.667c0-6.296,1.643-10.508,4.93-12.64
				c3.286-2.129,6.921-3.285,10.903-3.473c4.074,0,7.824,1.066,11.25,3.195c3.425,2.131,5.139,6.437,5.139,12.917V383.338z"/>
			<path style="fill:#555C5E;" d="M404.626,383.338c-3.056,0.185-6.368,0.139-9.931-0.139c-3.566-0.277-5.347-2.546-5.347-6.806
				v-40.835h4.999c1.203,0,2.268,0.465,3.194,1.389c0.925,0.928,1.389,2.038,1.389,3.334v6.25h5.695v1.945
				c0,1.389-0.464,2.523-1.389,3.402c-0.926,0.881-2.038,1.319-3.334,1.319h-0.972v20.556c0,1.576,0.924,2.361,2.778,2.361h2.917
				V383.338z"/>
			<path style="fill:#555C5E;" d="M444.695,346.393v21.667c0,6.576-1.715,10.882-5.14,12.917c-3.427,2.038-7.177,3.056-11.25,3.056
				c-3.983-0.187-7.616-1.296-10.902-3.334c-3.288-2.035-4.931-6.25-4.931-12.639v-21.667h9.723v23.611
				c0,2.223,0.647,3.844,1.943,4.861c1.296,1.02,2.778,1.528,4.444,1.528c1.667,0,3.171-0.509,4.515-1.528
				c1.341-1.018,2.014-2.639,2.014-4.861v-18.889c0-1.296,0.438-2.407,1.319-3.333c0.88-0.925,2.015-1.39,3.403-1.39H444.695z"/>
			<path style="fill:#555C5E;" d="M452.541,383.338v-17.917c0-3.611,0.531-6.642,1.597-9.098c1.064-2.452,2.522-4.42,4.375-5.903
				c1.758-1.389,3.819-2.406,6.181-3.055c2.361-0.646,4.792-0.973,7.292-0.973c0.185,0,0.417,0,0.694,0c0.278,0,0.509,0,0.694,0
				v9.861h-3.194c-2.686,0-4.677,0.648-5.972,1.944c-1.298,1.298-1.944,3.334-1.944,6.111v19.028H452.541z"/>
			<path style="fill:#555C5E;" d="M496.499,383.338c-3.056,0.185-6.367,0.139-9.931-0.139c-3.565-0.277-5.348-2.546-5.348-6.806
				v-40.835h5c1.203,0,2.269,0.465,3.194,1.389c0.925,0.928,1.39,2.038,1.39,3.334v6.25h5.694v1.945
				c0,1.389-0.464,2.523-1.389,3.402c-0.927,0.881-2.038,1.319-3.334,1.319h-0.972v20.556c0,1.576,0.924,2.361,2.777,2.361h2.917
				V383.338z"/>
			<path style="fill:#555C5E;" d="M504.345,335.559h5c1.296,0,2.407,0.441,3.334,1.32c0.925,0.881,1.389,1.968,1.389,3.264v43.195
				h-9.723V335.559z"/>
			<path style="fill:#555C5E;" d="M548.441,371.949h6.944c-1.019,3.889-2.964,6.853-5.833,8.889
				c-2.871,2.131-6.482,3.194-10.834,3.194c-5.278,0-9.4-1.712-12.361-5.139c-2.965-3.334-4.444-8.102-4.444-14.306
				c0-5.925,1.435-10.556,4.306-13.89c2.962-3.425,7.083-5.14,12.361-5.14c5.556,0,9.861,1.667,12.917,5.001
				c2.962,3.427,4.444,8.194,4.444,14.306c0,0.371,0,0.694,0,0.972c0,0.278,0,0.465,0,0.557c0,0.464-0.048,0.787-0.139,0.972
				h-24.028c0.091,2.871,0.786,5,2.083,6.389c1.202,1.482,3.008,2.223,5.417,2.223c1.573,0,2.917-0.323,4.028-0.972
				c0.277-0.092,0.531-0.255,0.764-0.487c0.229-0.23,0.486-0.485,0.764-0.764c0.092-0.277,0.439-0.646,1.042-1.11
				C546.473,372.181,547.33,371.949,548.441,371.949z M531.774,361.115h14.167c-0.187-2.5-0.834-4.352-1.944-5.556
				c-1.205-1.296-2.917-1.944-5.14-1.944c-2.037,0-3.704,0.648-5,1.944C532.56,356.858,531.865,358.708,531.774,361.115z"/>
		</g>
	</g>
	<g>
		<linearGradient id="SVGID_1_" gradientUnits="userSpaceOnUse" x1="257.7611" y1="254.6339" x2="312.432" y2="311.9632">
			<stop  offset="0.1818" style="stop-color:#FFF11E"/>
			<stop  offset="0.7333" style="stop-color:#009245"/>
			<stop  offset="1" style="stop-color:#006837"/>
		</linearGradient>
		<path style="fill:url(#SVGID_1_);" d="M344.924,296.575c-12.249-5.023-17.291-18.923-26.579-29.254
			c-8.961-9.967-17.941-12.5-25.666-12.5c-14.145,0-25.113,4.659-33.106,15.09c-5.924,7.73-10.088,16.939-10.526,23.766
			l27.468,5.178l-24.577,0.017c4.678,6.39,15.439,17.256,35.574,19.45c18.631,2.029,63.216-1.241,63.216-1.241
			C349.065,309.776,347.091,302.873,344.924,296.575z"/>
		
			<linearGradient id="SVGID_00000019670359951493450100000002189675575255679166_" gradientUnits="userSpaceOnUse" x1="515.614" y1="190.4645" x2="523.2146" y2="284.1452">
			<stop  offset="0.0727" style="stop-color:#008F44"/>
			<stop  offset="1" style="stop-color:#003809"/>
		</linearGradient>
		<path style="fill:url(#SVGID_00000019670359951493450100000002189675575255679166_);" d="M534.211,245.947
			c-3.551,11.238-9.403,23.112-15.847,34.224c-1.501,24.716-6.806,36.909-6.806,36.909c6.524-7.851,16.479-20.621,25.08-34.909
			C536.32,262.358,534.211,245.947,534.211,245.947z"/>
		
			<linearGradient id="SVGID_00000131351516845438007580000002357752463680509831_" gradientUnits="userSpaceOnUse" x1="352.3261" y1="154.5538" x2="362.9005" y2="284.8886">
			<stop  offset="0.0727" style="stop-color:#008F44"/>
			<stop  offset="1" style="stop-color:#003809"/>
		</linearGradient>
		<path style="fill:url(#SVGID_00000131351516845438007580000002357752463680509831_);" d="M377.319,269.247
			c-16.516-23.535-35.324-35.912-35.324-35.912c10.229,16.737,16.947,35.958,21.334,53.072
			c13.032,14.469,17.649,30.673,17.649,30.673C381.315,299.713,379.796,283.633,377.319,269.247z"/>
		
			<linearGradient id="SVGID_00000120548330525043219130000000723969906335775675_" gradientUnits="userSpaceOnUse" x1="549.0979" y1="222.5816" x2="554.389" y2="287.7972">
			<stop  offset="0.0727" style="stop-color:#008F44"/>
			<stop  offset="1" style="stop-color:#003809"/>
		</linearGradient>
		<path style="fill:url(#SVGID_00000120548330525043219130000000723969906335775675_);" d="M558.249,287.188
			c-1.764,2.273-5.693,7.664-9.937,13.305l2.017,11.607l12.591-6.747L558.249,287.188z"/>
		
			<linearGradient id="SVGID_00000024702373258358471700000006168867145938840197_" gradientUnits="userSpaceOnUse" x1="439.9915" y1="146.4772" x2="450.6277" y2="277.5743">
			<stop  offset="0.0727" style="stop-color:#008F44"/>
			<stop  offset="1" style="stop-color:#003809"/>
		</linearGradient>
		<path style="fill:url(#SVGID_00000024702373258358471700000006168867145938840197_);" d="M460.605,253.78
			c-3.251-44.822-12.36-77.066-12.36-77.066c2.686,22.78-2.471,58.855-8.268,89.12c2.892,28.036,1.931,51.246,1.931,51.246
			C450.283,293.4,456.29,272.206,460.605,253.78z"/>
		
			<linearGradient id="SVGID_00000033357343421250258790000009082945175340591038_" gradientUnits="userSpaceOnUse" x1="478.0887" y1="159.7045" x2="487.7079" y2="278.2658">
			<stop  offset="0.0727" style="stop-color:#008F44"/>
			<stop  offset="1" style="stop-color:#003809"/>
		</linearGradient>
		<path style="fill:url(#SVGID_00000033357343421250258790000009082945175340591038_);" d="M498.597,199.259
			c-1.103,20.155-10.976,50.33-20.952,76.286c-1.266,12.149-3.096,25.795-5.666,41.084h0.203
			c12.134-19.367,22.382-42.893,30.071-63.241C503.985,217.364,498.597,199.259,498.597,199.259z"/>
		
			<linearGradient id="SVGID_00000011715685787374331600000013294482299779751098_" gradientUnits="userSpaceOnUse" x1="398.625" y1="149.9093" x2="409.2553" y2="280.9334">
			<stop  offset="0.0727" style="stop-color:#008F44"/>
			<stop  offset="1" style="stop-color:#003809"/>
		</linearGradient>
		<path style="fill:url(#SVGID_00000011715685787374331600000013294482299779751098_);" d="M417.218,238.386
			c-11.414-32.256-27.025-51.724-27.025-51.724c7.605,20.075,10.305,51.682,10.445,81.936c9.568,26.083,9.665,48.482,9.665,48.482
			C416.383,287.077,417.894,260.501,417.218,238.386z"/>
		
			<linearGradient id="SVGID_00000044856967738178218730000008378139570508986795_" gradientUnits="userSpaceOnUse" x1="306.2391" y1="253.4854" x2="283.8621" y2="296.4782">
			<stop  offset="0.1818" style="stop-color:#FFF11E"/>
			<stop  offset="0.3796" style="stop-color:#009245"/>
			<stop  offset="1" style="stop-color:#006837"/>
		</linearGradient>
		<path style="opacity:0.41;fill:url(#SVGID_00000044856967738178218730000008378139570508986795_);" d="M290.943,299.238
			c10.044,0,18.186-7.732,18.186-17.272c0-6.108-3.348-11.463-8.386-14.534c-10.967,0.197-20.818,4.709-27.744,11.835
			c-0.147,0.881-0.244,1.779-0.244,2.699C272.756,291.506,280.898,299.238,290.943,299.238z"/>
		
			<linearGradient id="SVGID_00000032608062830526087690000016427583248005758909_" gradientUnits="userSpaceOnUse" x1="299.3771" y1="262.9713" x2="282.2601" y2="295.8581">
			<stop  offset="0.0909" style="stop-color:#00FFFF"/>
			<stop  offset="0.0987" style="stop-color:#02FCFB"/>
			<stop  offset="0.2469" style="stop-color:#23C4BA"/>
			<stop  offset="0.3927" style="stop-color:#409381"/>
			<stop  offset="0.5324" style="stop-color:#576C53"/>
			<stop  offset="0.665" style="stop-color:#694D2F"/>
			<stop  offset="0.7885" style="stop-color:#763715"/>
			<stop  offset="0.8997" style="stop-color:#7E2A05"/>
			<stop  offset="0.9879" style="stop-color:#812500"/>
		</linearGradient>
		<path style="opacity:0.26;fill:url(#SVGID_00000032608062830526087690000016427583248005758909_);" d="M304.107,270.072
			c-1.005-1.001-2.132-1.889-3.363-2.64c-10.967,0.197-20.818,4.709-27.744,11.835c-1.155,9.054,6.848,17.228,15.827,16.971
			C309.179,295.654,307.929,275.238,304.107,270.072z"/>
		<g>
			<path style="fill:#FFFFFF;" d="M305.325,277.266c0,8.735-7.08,15.814-15.813,15.814c-8.735,0-15.816-7.079-15.816-15.814
				c0-8.732,7.081-15.813,15.816-15.813C298.245,261.453,305.325,268.533,305.325,277.266z"/>
			
				<linearGradient id="SVGID_00000181073122686297753710000017474669884901043638_" gradientUnits="userSpaceOnUse" x1="272.5166" y1="276.0865" x2="304.1475" y2="276.0865">
				<stop  offset="0" style="stop-color:#B3B3B3"/>
				<stop  offset="0.9212" style="stop-color:#FFFFFF"/>
			</linearGradient>
			<path style="fill:url(#SVGID_00000181073122686297753710000017474669884901043638_);" d="M304.147,276.088
				c0,8.732-7.082,15.812-15.816,15.812c-8.734,0-15.814-7.08-15.814-15.812c0-8.734,7.08-15.814,15.814-15.814
				C297.065,260.273,304.147,267.354,304.147,276.088z"/>
			<path d="M291.314,274.151c0,4.33-3.508,7.838-7.836,7.838c-4.33,0-7.839-3.508-7.839-7.838c0-4.328,3.509-7.838,7.839-7.838
				C287.806,266.314,291.314,269.823,291.314,274.151z"/>
			<path style="fill:#FFFFFF;" d="M289.36,272.062c0,1.489-1.066,2.699-2.381,2.699c-1.314,0-2.378-1.21-2.378-2.699
				c0-1.488,1.064-2.696,2.378-2.696C288.294,269.365,289.36,270.573,289.36,272.062z"/>
		</g>
		
			<linearGradient id="SVGID_00000131353583261037865650000015228009992374476454_" gradientUnits="userSpaceOnUse" x1="551.7551" y1="188.9657" x2="314.635" y2="357.3792">
			<stop  offset="0" style="stop-color:#812500"/>
			<stop  offset="0.1576" style="stop-color:#B30056"/>
			<stop  offset="0.297" style="stop-color:#FF5945"/>
			<stop  offset="0.4061" style="stop-color:#FFBD2D"/>
			<stop  offset="0.5333" style="stop-color:#F5FF43"/>
			<stop  offset="0.6182" style="stop-color:#82E82D"/>
			<stop  offset="0.7333" style="stop-color:#00C79F"/>
			<stop  offset="0.8303" style="stop-color:#00CCEC"/>
			<stop  offset="0.9576" style="stop-color:#69DBFF"/>
		</linearGradient>
		<path style="fill:url(#SVGID_00000131353583261037865650000015228009992374476454_);" d="M471.27,182.933
			c-0.927,20.558-5.825,67.602-29.362,134.147h18.445c10.597-23.699,36.419-84.48,38.243-117.821
			C490.22,192.43,481.043,186.905,471.27,182.933z"/>
		
			<linearGradient id="SVGID_00000026865271880487671090000017711599106926934714_" gradientUnits="userSpaceOnUse" x1="587.7023" y1="259.156" x2="362.4602" y2="419.1332">
			<stop  offset="0" style="stop-color:#812500"/>
			<stop  offset="0.1576" style="stop-color:#B30056"/>
			<stop  offset="0.297" style="stop-color:#FF5945"/>
			<stop  offset="0.4061" style="stop-color:#FFBD2D"/>
			<stop  offset="0.5333" style="stop-color:#F5FF43"/>
			<stop  offset="0.6182" style="stop-color:#82E82D"/>
			<stop  offset="0.7333" style="stop-color:#00C79F"/>
			<stop  offset="0.8303" style="stop-color:#00CCEC"/>
			<stop  offset="0.9576" style="stop-color:#69DBFF"/>
		</linearGradient>
		<path style="fill:url(#SVGID_00000026865271880487671090000017711599106926934714_);" d="M543.112,270.55
			c-9.543,18.8-23.299,36.597-31.554,46.53h23.137c4.985-4.339,19.628-24.833,23.554-29.893
			C552.969,281.752,550.706,277.675,543.112,270.55z"/>
		
			<linearGradient id="SVGID_00000105421282825767960420000015359568746053677455_" gradientUnits="userSpaceOnUse" x1="557.4428" y1="131.9287" x2="291.9972" y2="320.4603">
			<stop  offset="0" style="stop-color:#812500"/>
			<stop  offset="0.1576" style="stop-color:#B30056"/>
			<stop  offset="0.297" style="stop-color:#FF5945"/>
			<stop  offset="0.4061" style="stop-color:#FFBD2D"/>
			<stop  offset="0.5333" style="stop-color:#F5FF43"/>
			<stop  offset="0.6182" style="stop-color:#82E82D"/>
			<stop  offset="0.7333" style="stop-color:#00C79F"/>
			<stop  offset="0.8303" style="stop-color:#00CCEC"/>
			<stop  offset="0.9576" style="stop-color:#69DBFF"/>
		</linearGradient>
		<path style="fill:url(#SVGID_00000105421282825767960420000015359568746053677455_);" d="M328.04,265.071
			c8.053,7.536,17.127,27.552,22.687,52.009h18.701c-2.937-20.352-10.214-55.567-27.433-83.745
			C336.249,243.049,331.534,253.707,328.04,265.071z"/>
		
			<linearGradient id="SVGID_00000026127655822203242450000016038044293153617337_" gradientUnits="userSpaceOnUse" x1="352.193" y1="301.7174" x2="330.1769" y2="310.4636">
			<stop  offset="0" style="stop-color:#FFFFFF"/>
			<stop  offset="0.1109" style="stop-color:#F7F7F7"/>
			<stop  offset="0.2793" style="stop-color:#E2E2E2"/>
			<stop  offset="0.4842" style="stop-color:#C0C0C0"/>
			<stop  offset="0.7178" style="stop-color:#909090"/>
			<stop  offset="0.9727" style="stop-color:#545454"/>
			<stop  offset="1" style="stop-color:#4D4D4D"/>
		</linearGradient>
		<path style="opacity:0.46;fill:url(#SVGID_00000026127655822203242450000016038044293153617337_);" d="M350.727,317.08
			c-1.661-7.309-3.639-14.216-5.807-20.518c-2.499-1.026-4.704-2.414-6.7-4.074c0.828,6.749,0.866,13.331-0.541,18.833
			c-0.685,2.681-1.27,4.482-1.768,6.672C346.604,317.079,350.727,317.08,350.727,317.08z"/>
		
			<linearGradient id="SVGID_00000183966271780994499880000003593332891763651240_" gradientUnits="userSpaceOnUse" x1="543.9354" y1="145.0504" x2="292.1414" y2="323.8859">
			<stop  offset="0" style="stop-color:#812500"/>
			<stop  offset="0.1576" style="stop-color:#B30056"/>
			<stop  offset="0.297" style="stop-color:#FF5945"/>
			<stop  offset="0.4061" style="stop-color:#FFBD2D"/>
			<stop  offset="0.5333" style="stop-color:#F5FF43"/>
			<stop  offset="0.6182" style="stop-color:#82E82D"/>
			<stop  offset="0.7333" style="stop-color:#00C79F"/>
			<stop  offset="0.8303" style="stop-color:#00CCEC"/>
			<stop  offset="0.9576" style="stop-color:#69DBFF"/>
		</linearGradient>
		<path style="fill:url(#SVGID_00000183966271780994499880000003593332891763651240_);" d="M359.53,209.941
			c8.503,19.036,22.402,57.961,21.448,107.139h17.8c3.209-38.478,3.402-98.775-8.586-130.418
			C378.919,192.438,368.585,200.339,359.53,209.941z"/>
		
			<linearGradient id="SVGID_00000010305930795156876690000003110459863003177891_" gradientUnits="userSpaceOnUse" x1="602.76" y1="283.4302" x2="378.9672" y2="442.378">
			<stop  offset="0" style="stop-color:#812500"/>
			<stop  offset="0.1576" style="stop-color:#B30056"/>
			<stop  offset="0.297" style="stop-color:#FF5945"/>
			<stop  offset="0.4061" style="stop-color:#FFBD2D"/>
			<stop  offset="0.5333" style="stop-color:#F5FF43"/>
			<stop  offset="0.6182" style="stop-color:#82E82D"/>
			<stop  offset="0.7333" style="stop-color:#00C79F"/>
			<stop  offset="0.8303" style="stop-color:#00CCEC"/>
			<stop  offset="0.9576" style="stop-color:#69DBFF"/>
		</linearGradient>
		<polygon style="fill:url(#SVGID_00000010305930795156876690000003110459863003177891_);" points="550.329,312.1 566.169,317.988 
			574.844,298.964 		"/>
		<path style="opacity:0.41;fill:#614233;" d="M398.778,317.08c0.664-7.954,1.195-16.85,1.52-26.222
			c-7.985,1.285-14.889,7.901-19.405,13.461c0.133,4.171,0.17,8.424,0.086,12.761H398.778z"/>
		
			<linearGradient id="SVGID_00000081639178481859070290000007190867154804398747_" gradientUnits="userSpaceOnUse" x1="390.1536" y1="297.2535" x2="403.8554" y2="311.6217">
			<stop  offset="0.1818" style="stop-color:#FFF11E"/>
			<stop  offset="0.7333" style="stop-color:#009245"/>
			<stop  offset="1" style="stop-color:#006837"/>
		</linearGradient>
		<path style="fill:url(#SVGID_00000081639178481859070290000007190867154804398747_);" d="M424.502,317.079
			c-0.458-12.367-9.193-22.229-19.907-22.229c-10.713,0-19.447,9.861-19.907,22.229H424.502z"/>
		
			<linearGradient id="SVGID_00000086687661266164695120000006610956469436743809_" gradientUnits="userSpaceOnUse" x1="541.3181" y1="161.2256" x2="298.4066" y2="333.7524">
			<stop  offset="0" style="stop-color:#812500"/>
			<stop  offset="0.1576" style="stop-color:#B30056"/>
			<stop  offset="0.297" style="stop-color:#FF5945"/>
			<stop  offset="0.4061" style="stop-color:#FFBD2D"/>
			<stop  offset="0.5333" style="stop-color:#F5FF43"/>
			<stop  offset="0.6182" style="stop-color:#82E82D"/>
			<stop  offset="0.7333" style="stop-color:#00C79F"/>
			<stop  offset="0.8303" style="stop-color:#00CCEC"/>
			<stop  offset="0.9576" style="stop-color:#69DBFF"/>
		</linearGradient>
		<path style="fill:url(#SVGID_00000086687661266164695120000006610956469436743809_);" d="M448.245,176.714
			c-4.413-0.625-8.9-0.955-13.454-0.955c-8.793,0-17.351,1.199-25.571,3.467c5.557,21.236,14.61,71.105,1.083,137.855h18.333
			C432.891,300.229,453.033,217.335,448.245,176.714z"/>
		
			<linearGradient id="SVGID_00000075849956263349267550000007149173776701068202_" gradientUnits="userSpaceOnUse" x1="541.3181" y1="161.2256" x2="298.4066" y2="333.7524">
			<stop  offset="0" style="stop-color:#812500"/>
			<stop  offset="0.1576" style="stop-color:#B30056"/>
			<stop  offset="0.297" style="stop-color:#FF5945"/>
			<stop  offset="0.4061" style="stop-color:#FFBD2D"/>
			<stop  offset="0.5333" style="stop-color:#F5FF43"/>
			<stop  offset="0.6182" style="stop-color:#82E82D"/>
			<stop  offset="0.7333" style="stop-color:#00C79F"/>
			<stop  offset="0.8303" style="stop-color:#00CCEC"/>
			<stop  offset="0.9576" style="stop-color:#69DBFF"/>
		</linearGradient>
		<path style="fill:url(#SVGID_00000075849956263349267550000007149173776701068202_);" d="M448.245,176.714
			c-4.413-0.625-8.9-0.955-13.454-0.955c-8.793,0-17.351,1.199-25.571,3.467c5.557,21.236,14.61,71.105,1.083,137.855h18.333
			C432.891,300.229,453.033,217.335,448.245,176.714z"/>
		
			<linearGradient id="SVGID_00000082348825584879832110000008899320740666498432_" gradientUnits="userSpaceOnUse" x1="576.7845" y1="248.6033" x2="514.0685" y2="306.0938">
			<stop  offset="0" style="stop-color:#FFFFFF"/>
			<stop  offset="0.1109" style="stop-color:#F7F7F7"/>
			<stop  offset="0.2793" style="stop-color:#E2E2E2"/>
			<stop  offset="0.4842" style="stop-color:#C0C0C0"/>
			<stop  offset="0.7178" style="stop-color:#909090"/>
			<stop  offset="0.9727" style="stop-color:#545454"/>
			<stop  offset="1" style="stop-color:#4D4D4D"/>
		</linearGradient>
		<path style="opacity:0.45;fill:url(#SVGID_00000082348825584879832110000008899320740666498432_);" d="M548.498,276.005
			c-1.493-1.641-3.218-3.42-5.386-5.455c-9.543,18.8-23.299,36.597-31.554,46.53C511.559,317.08,541.194,292.168,548.498,276.005z"
			/>
		
			<linearGradient id="SVGID_00000093869186250107757180000004269976647266881727_" gradientUnits="userSpaceOnUse" x1="555.3517" y1="175.068" x2="462.6587" y2="260.0377">
			<stop  offset="0" style="stop-color:#FFFFFF"/>
			<stop  offset="0.1109" style="stop-color:#F7F7F7"/>
			<stop  offset="0.2793" style="stop-color:#E2E2E2"/>
			<stop  offset="0.4842" style="stop-color:#C0C0C0"/>
			<stop  offset="0.7178" style="stop-color:#909090"/>
			<stop  offset="0.9727" style="stop-color:#545454"/>
			<stop  offset="1" style="stop-color:#4D4D4D"/>
		</linearGradient>
		<path style="opacity:0.29;fill:url(#SVGID_00000093869186250107757180000004269976647266881727_);" d="M471.8,290.294
			c11.591-28.417,25.477-66.907,26.797-91.035c-2.101-1.713-4.252-3.343-6.45-4.888C490.53,210.25,483.56,253.339,471.8,290.294z"/>
		
			<linearGradient id="SVGID_00000157283716722827787250000010944736557279284128_" gradientUnits="userSpaceOnUse" x1="554.3547" y1="167.7934" x2="432.2054" y2="279.765">
			<stop  offset="0" style="stop-color:#FFFFFF"/>
			<stop  offset="0.1109" style="stop-color:#F7F7F7"/>
			<stop  offset="0.2793" style="stop-color:#E2E2E2"/>
			<stop  offset="0.4842" style="stop-color:#C0C0C0"/>
			<stop  offset="0.7178" style="stop-color:#909090"/>
			<stop  offset="0.9727" style="stop-color:#545454"/>
			<stop  offset="1" style="stop-color:#4D4D4D"/>
		</linearGradient>
		<path style="opacity:0.29;fill:url(#SVGID_00000157283716722827787250000010944736557279284128_);" d="M441.908,317.08h8.716
			c21.969-48.696,21.493-104.618,20.214-126.928C469.131,213.424,463.017,257.401,441.908,317.08z"/>
		<g style="opacity:0.29;">
			
				<linearGradient id="SVGID_00000183951928226439835980000012479146474780117426_" gradientUnits="userSpaceOnUse" x1="379.1104" y1="236.9371" x2="400.6437" y2="236.9371">
				<stop  offset="0" style="stop-color:#FFFFFF"/>
				<stop  offset="0.1109" style="stop-color:#F7F7F7"/>
				<stop  offset="0.2793" style="stop-color:#E2E2E2"/>
				<stop  offset="0.4842" style="stop-color:#C0C0C0"/>
				<stop  offset="0.7178" style="stop-color:#909090"/>
				<stop  offset="0.9727" style="stop-color:#545454"/>
				<stop  offset="1" style="stop-color:#4D4D4D"/>
			</linearGradient>
			<path style="fill:url(#SVGID_00000183951928226439835980000012479146474780117426_);" d="M400.413,287.212
				c0.997-35.199-1.029-76.292-10.221-100.55c-2.391,1.226-8.78,5.769-11.082,7.18C384.566,203.843,399.563,246.924,400.413,287.212
				z"/>
		</g>
		
			<linearGradient id="SVGID_00000011012029091494697040000004876285821776063417_" gradientUnits="userSpaceOnUse" x1="336.8232" y1="275.2076" x2="369.4277" y2="275.2076">
			<stop  offset="0" style="stop-color:#FFFFFF"/>
			<stop  offset="0.1109" style="stop-color:#F7F7F7"/>
			<stop  offset="0.2793" style="stop-color:#E2E2E2"/>
			<stop  offset="0.4842" style="stop-color:#C0C0C0"/>
			<stop  offset="0.7178" style="stop-color:#909090"/>
			<stop  offset="0.9727" style="stop-color:#545454"/>
			<stop  offset="1" style="stop-color:#4D4D4D"/>
		</linearGradient>
		<path style="opacity:0.29;fill:url(#SVGID_00000011012029091494697040000004876285821776063417_);" d="M336.823,242.936
			c7.295,10.981,26.06,41.798,30.464,74.145h2.141c-2.937-20.352-10.214-55.567-27.433-83.745
			C340.159,236.439,338.442,239.648,336.823,242.936z"/>
		<path style="opacity:0.41;fill:#614233;" d="M471.111,291.974c-17.031-3.21-25.905,16.184-28.429,22.883
			c-0.26,0.744-0.509,1.476-0.774,2.224h18.445C463.129,310.872,466.951,302.109,471.111,291.974z"/>
		
			<linearGradient id="SVGID_00000132085722540145725650000017084142931497719987_" gradientUnits="userSpaceOnUse" x1="457.7769" y1="298.9446" x2="473.9243" y2="315.8771">
			<stop  offset="0.1818" style="stop-color:#FFF11E"/>
			<stop  offset="0.7333" style="stop-color:#009245"/>
			<stop  offset="1" style="stop-color:#006837"/>
		</linearGradient>
		<path style="fill:url(#SVGID_00000132085722540145725650000017084142931497719987_);" d="M490.368,316.928
			c-0.459-12.368-9.193-22.229-19.907-22.229c-10.714,0-19.448,9.861-19.907,22.229H490.368z"/>
		
			<linearGradient id="SVGID_00000038410212453442993680000000327198253995269823_" gradientUnits="userSpaceOnUse" x1="569.1147" y1="220.3408" x2="334.2593" y2="387.1457">
			<stop  offset="0" style="stop-color:#812500"/>
			<stop  offset="0.1576" style="stop-color:#B30056"/>
			<stop  offset="0.297" style="stop-color:#FF5945"/>
			<stop  offset="0.4061" style="stop-color:#FFBD2D"/>
			<stop  offset="0.5333" style="stop-color:#F5FF43"/>
			<stop  offset="0.6182" style="stop-color:#82E82D"/>
			<stop  offset="0.7333" style="stop-color:#00C79F"/>
			<stop  offset="0.8303" style="stop-color:#00CCEC"/>
			<stop  offset="0.9576" style="stop-color:#69DBFF"/>
		</linearGradient>
		<path style="fill:url(#SVGID_00000038410212453442993680000000327198253995269823_);" d="M515.099,215.619
			c-6.004,19.821-21.65,67.27-43.195,101.461h21.67c11.658-15.374,32.376-44.981,40.638-71.133
			C529.027,234.782,522.582,224.577,515.099,215.619z"/>
	</g>
</g>
</svg>
